<svg version="1.1" id="Layer_1" xmlns="http://www.w3.org/2000/svg" xmlns:xlink="http://www.w3.org/1999/xlink" x="0px" y="0px"
	 width="100%" viewBox="0 0 464 384" enable-background="new 0 0 464 384" xml:space="preserve">
<path fill="#000000" opacity="1.000000" stroke="none" 
	d="
M218.995667,212.994324 
	C221.696930,214.562332 224.972214,213.084152 228.108963,214.773743 
	C227.583664,222.289871 225.412491,229.614120 223.894592,237.023758 
	C218.725113,262.258728 213.440842,287.471497 207.939499,312.635742 
	C207.004776,316.911316 208.200470,317.969696 212.183960,317.960205 
	C243.007736,317.886841 273.831940,317.865662 304.655518,317.969421 
	C309.086090,317.984344 310.446930,316.513428 308.925110,312.307800 
	C308.365967,310.762512 308.242432,309.060699 307.908966,307.432556 
	C305.305786,294.722839 308.037140,296.474457 294.656067,296.431610 
	C269.830505,296.352142 245.004517,296.421539 220.178741,296.397522 
	C218.213531,296.395630 216.189011,296.758850 213.973099,295.737701 
	C213.225266,291.292725 214.937408,287.079803 215.982040,282.817810 
	C216.475311,280.805267 218.441467,280.834412 220.122681,280.834167 
	C251.446426,280.829773 282.770172,280.832428 314.093903,280.852692 
	C317.368469,280.854828 320.164459,281.970184 320.975250,285.432465 
	C321.809326,288.993896 319.736053,291.242371 316.551910,292.177795 
	C313.660950,293.027039 314.133759,295.077667 314.466797,296.955078 
	C315.453217,302.515839 316.741058,308.023499 317.706665,313.587433 
	C318.260315,316.777588 319.799957,318.248993 323.094666,317.954376 
	C324.912140,317.791840 326.760223,318.008759 328.589447,317.932526 
	C331.862244,317.796204 333.417358,318.995300 333.390381,322.573608 
	C333.361725,326.375946 331.083893,326.341797 328.438385,326.341766 
	C266.790466,326.340668 205.142532,326.359924 143.494614,326.338928 
	C141.451126,326.338226 138.860641,326.852905 138.721268,323.497467 
	C138.617126,320.990540 138.179657,318.380859 141.821564,317.789307 
	C144.633667,317.332489 144.525620,314.756836 145.001663,312.714294 
	C151.226303,286.007050 157.447052,259.298828 163.643799,232.585083 
	C173.673035,189.349731 183.664673,146.105652 193.713837,102.874924 
	C196.781662,89.677330 207.415237,81.083450 221.010300,80.744156 
	C226.005920,80.619484 231.012070,80.556602 236.003372,80.739532 
	C239.520859,80.868439 241.054672,79.371811 241.726852,76.000458 
	C243.042770,69.400558 243.226746,69.257629 249.789917,70.833870 
	C258.696960,72.973007 258.939484,70.737610 256.587189,81.680618 
	C251.069336,107.349777 245.741959,133.059937 240.371246,158.760559 
	C240.062805,160.236572 239.837143,161.694595 238.723129,163.113281 
	C234.667435,162.013412 230.515427,161.066864 226.491974,159.732635 
	C223.848724,158.856125 224.732681,156.513687 225.132675,154.603668 
	C229.117966,135.574707 233.135361,116.552460 237.128967,97.525230 
	C237.632599,95.125664 238.051544,92.708328 238.646805,89.578423 
	C229.729248,89.565804 221.282043,87.791061 213.135025,90.945419 
	C206.941605,93.343369 203.473129,98.347801 201.976151,104.747635 
	C195.842178,130.971420 189.665207,157.185242 183.584854,183.421448 
	C173.639130,226.336441 163.753738,269.265411 153.857559,312.191864 
	C153.490494,313.784088 153.277496,315.411804 152.862686,317.758545 
	C163.552460,317.758545 173.803146,317.792999 184.053146,317.726318 
	C185.867599,317.714539 186.419144,316.284119 186.740326,314.662842 
	C187.967636,308.467377 189.310562,302.294922 190.555786,296.102875 
	C190.966110,294.062561 190.486435,292.728851 188.052338,292.130188 
	C184.904327,291.355896 183.334595,288.910675 183.869827,285.695282 
	C184.417130,282.407349 186.981308,281.214386 190.038864,280.861572 
	C198.693451,279.862915 198.732986,279.866638 200.581696,271.154388 
	C204.307510,253.596130 207.977417,236.026031 211.693542,218.465698 
	C212.101990,216.535599 212.661453,214.637436 213.102951,212.911804 
	C215.065369,211.955353 216.659088,212.869171 218.646423,212.968430 
	C219.019165,213.009064 218.995667,212.994324 218.995667,212.994324 
z"/>
<path fill="#000000" opacity="1.000000" stroke="none" 
	d="
M219.033173,213.015045 
	C216.076294,210.870178 212.404388,210.117859 209.412262,207.888351 
	C199.570038,200.554672 196.011078,187.353729 201.126282,176.260605 
	C206.362167,164.905746 218.587708,158.836273 230.354721,161.749863 
	C242.964691,164.872177 250.832474,175.438889 250.323166,188.568176 
	C249.869324,200.267975 240.464462,210.448578 228.570740,212.456467 
	C225.564224,212.964020 222.616592,212.425369 219.327484,212.883148 
	C218.995667,212.994324 219.019165,213.009064 219.033173,213.015045 
M213.291702,187.399475 
	C214.339645,194.950119 220.146652,199.665009 226.503098,198.126190 
	C232.940918,196.567703 236.399841,191.757812 235.705017,185.330338 
	C235.124542,179.960846 230.304398,175.526703 224.917343,175.406555 
	C218.665497,175.267120 214.244690,179.520523 213.291702,187.399475 
z"/>
<path fill="#000000" opacity="1.000000" stroke="none" 
	d="
M228.649338,191.862946 
	C225.226364,193.881943 222.275284,193.839798 219.766571,191.097595 
	C217.734543,188.876465 217.626160,186.293320 219.086960,183.726395 
	C220.596512,181.073853 223.081894,180.340408 225.926804,180.791245 
	C230.783859,181.560989 232.154541,186.524719 228.649338,191.862946 
z"/>
</svg>