<?xml version="1.0" standalone="no"?>
<!DOCTYPE svg PUBLIC "-//W3C//DTD SVG 20010904//EN"
 "http://www.w3.org/TR/2001/REC-SVG-20010904/DTD/svg10.dtd">
<svg version="1.0" xmlns="http://www.w3.org/2000/svg"
 width="290.000000pt" height="246.000000pt" viewBox="0 0 290.000000 246.000000"
 preserveAspectRatio="xMidYMid meet">
<g transform="translate(0.000000,246.000000) scale(0.100000,-0.100000)"
fill="#000000" stroke="none">
<path d="M1295 2096 c-113 -26 -212 -73 -311 -147 l-51 -38 -42 43 c-27 28
-41 51 -41 68 0 27 -40 68 -65 68 -26 0 -57 -36 -57 -65 0 -34 36 -68 66 -62
15 3 32 -8 60 -40 l39 -44 -33 -34 c-42 -43 -68 -44 -105 -5 -16 17 -36 30
-46 30 -9 0 -24 12 -33 26 -14 21 -24 25 -54 22 -29 -2 -40 -9 -51 -32 -12
-25 -11 -31 6 -55 26 -34 59 -38 89 -10 l23 22 45 -41 44 -41 -35 -40 c-34
-40 -36 -41 -97 -41 -50 0 -67 4 -81 20 -37 41 -105 14 -105 -41 0 -30 9 -43
37 -58 24 -12 73 0 73 19 0 6 28 10 69 10 66 0 70 -1 94 -33 l24 -32 -36 -43
c-26 -30 -44 -42 -63 -42 -53 0 -79 -68 -40 -103 42 -38 102 -8 102 49 0 21
10 40 35 64 l35 34 62 -62 62 -62 -34 -35 c-21 -22 -40 -33 -51 -30 -24 8 -61
-27 -61 -58 -1 -38 19 -57 56 -57 40 0 56 16 56 55 0 22 10 40 34 64 l34 33
58 -40 c75 -50 141 -83 229 -113 61 -21 88 -24 215 -24 126 0 154 3 215 24
122 41 233 106 338 198 35 32 41 33 119 33 55 0 87 -4 97 -14 30 -26 59 -28
80 -7 29 29 27 67 -5 88 -25 16 -28 16 -56 0 -19 -11 -51 -17 -89 -17 l-60 0
51 59 51 58 71 5 c62 5 76 3 99 -15 27 -19 29 -19 53 -3 28 18 35 63 14 84
-17 17 -63 15 -78 -3 -9 -11 -33 -15 -84 -15 -59 0 -73 3 -83 19 -10 16 -5 25
35 63 26 25 59 48 73 52 36 8 53 49 37 84 -10 21 -21 28 -50 30 -45 4 -72 -27
-62 -74 4 -24 -1 -35 -33 -66 l-39 -38 -69 70 -69 70 43 44 c29 29 49 42 61
39 28 -7 73 41 65 70 -11 33 -30 50 -61 50 -33 0 -68 -38 -61 -65 4 -12 -10
-33 -41 -62 l-46 -44 -50 38 c-75 56 -151 95 -241 126 -98 33 -281 43 -380 20z
m310 -71 c81 -21 206 -84 287 -145 60 -45 198 -187 198 -204 0 -3 -13 -6 -30
-6 -23 0 -30 -5 -30 -19 0 -16 8 -20 37 -23 l37 -3 -61 -65 -62 -65 -1 88 c0
86 0 87 -25 87 l-25 0 0 -112 c-1 -108 -2 -114 -25 -131 l-25 -18 0 106 c0 98
-1 105 -20 105 -19 0 -20 -7 -20 -120 l0 -120 -37 -23 c-104 -65 -223 -99
-348 -99 -207 -1 -406 96 -575 280 -39 42 -70 79 -70 84 0 4 56 8 125 8 l125
0 0 25 0 25 -127 0 -127 0 44 45 c42 43 47 45 101 45 38 0 61 -5 69 -15 18
-22 47 -18 65 9 29 44 -16 91 -60 62 -14 -9 -41 -16 -62 -16 l-38 1 40 36 c87
78 214 147 327 177 71 20 239 20 313 1z"/>
<path d="M1381 1950 c-93 -20 -195 -108 -225 -197 -35 -102 -10 -229 59 -311
21 -24 63 -54 101 -73 53 -26 76 -32 133 -32 120 0 226 65 278 171 24 49 28
69 28 142 0 73 -4 92 -27 136 -64 123 -211 192 -347 164z m224 -195 l-36 -31
12 -46 c11 -41 10 -51 -6 -89 -24 -52 -66 -79 -123 -79 -56 0 -99 25 -123 72
-24 47 -24 79 0 127 37 71 102 95 174 63 l45 -20 33 34 c31 32 35 34 47 17 12
-16 9 -22 -23 -48z"/>
<path d="M1406 1699 c-47 -37 -26 -110 36 -125 21 -4 33 0 52 20 33 32 33 70
1 101 -30 30 -54 31 -89 4z"/>
<path d="M1754 1001 c-60 -15 -102 -50 -130 -107 -46 -93 -23 -191 58 -257 67
-54 190 -51 255 6 135 119 68 343 -108 361 -24 3 -58 1 -75 -3z m125 -97 c88
-74 50 -219 -61 -231 -121 -13 -183 151 -87 231 42 36 106 36 148 0z"/>
<path d="M506 933 c14 -38 45 -120 69 -183 24 -63 46 -123 50 -133 6 -14 17
-17 53 -15 l45 3 43 115 c23 63 56 152 73 198 l31 83 -46 -3 -46 -3 -49 -139
c-26 -76 -50 -140 -52 -143 -3 -2 -12 17 -20 42 -9 25 -33 91 -53 146 l-36 99
-44 0 -44 0 26 -67z"/>
<path d="M1080 965 l0 -34 90 -3 90 -3 -71 -100 c-117 -167 -121 -172 -117
-197 3 -23 5 -23 151 -26 l147 -3 0 40 0 40 -90 3 -90 3 90 127 c66 93 90 135
90 158 l0 30 -145 0 -145 0 0 -35z"/>
<path d="M1452 803 l3 -198 38 -3 37 -3 0 200 0 201 -40 0 -40 0 2 -197z"/>
<path d="M2080 800 l0 -200 40 0 39 0 3 126 3 127 90 -127 c87 -123 90 -126
127 -126 l38 0 0 200 0 200 -40 0 -40 0 0 -131 0 -132 -92 132 c-91 128 -94
131 -130 131 l-38 0 0 -200z"/>
<path d="M880 785 l0 -35 75 0 75 0 0 35 0 35 -75 0 -75 0 0 -35z"/>
</g>
</svg>
